<?xml version="1.0" encoding="utf-8"?>
<!-- Generator: Adobe Illustrator 24.0.1, SVG Export Plug-In . SVG Version: 6.00 Build 0)  -->
<svg version="1.1" id="Слой_1" xmlns="http://www.w3.org/2000/svg" xmlns:xlink="http://www.w3.org/1999/xlink" x="0px" y="0px"
	 viewBox="0 0 1070 379.3" xml:space="preserve" fill="none" stroke="black">
<path d="M5,305.4c289,0.8,559.7,4.1,853.6-16.3 M386.3,240.3H165.9v38.3h220.3 M386.3,240.3v38.3 M386.3,240.3
	l272.1,0.6 M386.3,278.6v-17.7h-139v17.7H386.3z M290.2,240.3v20.5 M297.1,240.3v8.1 M297.1,258.4v2.5 M31,340.9l34.5,0.8
	 M36.1,346.3l25.8,0 M86.6,341.6l213.2-0.8 M6.8,274.4h240.5 M6.8,274.4v4.6h240.5v-4.6 M6.8,274.4v-4.6 M247.3,274.4v-4.6
	 M247.3,269.8H6.8 M247.3,269.8v-4.6 M6.8,269.8v-4.6 M6.8,265.2h240.5 M6.8,265.2v-4.6h240.5v4.6 M223.3,265.2v13.8 M192.5,260.6
	v18 M658.3,240.9l-2.1-19.2 M658.3,240.9l0.9,3.9l-6.4-2.5 M448.5,240.5l3.1-18.3l208.7-0.2v-5.6l76-0.3l45.5,53.1l0.2,3.4
	 M712.1,216.1l42.1,54.7l0.1,3 M871.3,267.8l13.3-16.3l99.7-0.2 M995.5,251.3l68.6-0.1l2.3,4 M885.9,251.5l1.8-2.3l163.9-7.8l9,9.8
	 M1058.8,179.8l0.1,71.3 M1051.7,197.2h7.2v-2h-7.2V197.2z M1051.7,197.2c-1.4,12.6,3,26.1,7.2,39.6 M1058.8,214.2l-11.7,37
	 M736.2,216l4.5-15.2l-10.1-9.2l-74.3,0.6l-12.7-42h-89.5l-13.6,53 M472.3,222.1l23-14.2l6.1,0.1l0.1-5.5l51.8,0.1l3.2-10.6
	l16.2,0.3l8.7-42.3 M605.9,150.2l3.2,42.6l48.4-0.6 M660.2,216.3l1.9-15.1 M662.2,201.2l78.6-0.5 M662.2,201.2l-4.2-9.1
	 M690.2,191.9l0,9.2 M709.4,191.7l6,9.2 M721.6,191.6l8.4,9.2 M619.5,221.9l-1.8,23.3l5.1-3.1l30,0.2 M652.9,242.3l-0.2-1.5
	 M624.2,221.9l-1.4,20.2 M650.4,221.9l1.4,11.3 M642.2,192.4l2.3,29.5 M580.6,142.7h44.2 M580.6,142.7v7.5h44.2v-7.5 M580.6,142.7
	c-8.6-51.7,52.4-50.3,44.2,0 M11.6,327.2l681.8-0.3 M725.8,326.9l266.1-0.1 M10.8,325.2l305.8-0.4 M316.7,324.8l19.2,0 M335.8,324.8
	l366.4-0.4 M760.5,324.3l233.8-0.3 M1031.9,288l-0.3-12.6l14.6-6l5.3,3.6 M903.6,248.4l0.9,3 M921.7,247.5l1.2,3.9 M939.5,246.7
	l2.7,4.7 M956.7,245.9l4.2,5.5 M974.6,245l4.8,6.3 M993,244.1l5.6,7.1 M1027.9,242.5l8.6,8.7 M451.2,224.5l-154.3-0.9v16.7
	 M296.9,227.8l153.6,0.7 M296.9,232l152.9,0.8 M296.9,236.2l152.3,0.5 M409.2,240.4l9-33.1l77.1,0.7 M419.3,224.3l0,16.1
	 M430.8,224.4l0,12.2 M432.4,232.7l0,7.7 M434.8,224.4l0,8.3 M422.7,224.4l0,8.3 M415.3,224.3l0,8.3 M443.9,232.7l0,3.9
	 M429.3,236.6l0,3.8 M404.6,236.6l0,3.8 M409.6,212.3l7.1,0.2 M409.6,214l5.9,3.1 M419.5,205.6l82,0.8 M447.6,190.1l-0.2,17.4
	 M466.2,190.1l-0.2,17.6 M480.7,190.1l0.2,17.7 M499.6,190.3l0.1,16 M447.6,191.2l52,0.2 M499.7,199.8l54.8-0.5 M577.8,168.4
	l29.5,0.3 M585,150.2l-2.7,18.3 M600,150.2l3.1,18.5 M600,145.1v5.1 M741.7,254.5c40.4-0.6,107.8-6.9,144.3-3 M794.7,252.4l0,19.5
	 M745.5,259.5l49.2-0.6 M749.2,264.3l45.5-0.6 M752.8,269l41.9-0.7 M863.2,249.7l0.5,18.5 M552.3,154.8l-1.3-6.3l20.1-0.6v2.3
	 M564.1,111.4h-11.5V148h16L564.1,111.4z M564.1,111.4l-3.8-9.7 M554.4,111.4l0.3-9.8l27.6,0.3l-0.2,2.4l-19.1,7.1 M567.9,109.6
	l12.7,39.9 M565.9,110.3l11.9,39.8 M567.1,99c-3.1-17.7,18.9-19.2,16.1,0 M556,33.3h4.9 M556,33.3l-1.3,68.3h7.2l-1-68.3 M556,33.3
	l-6.4-0.1l6.4,4.4 M561,33.3l8.3-0.1l-8.2,4.4 M561.1,42.6l11.8-0.1l-11.8,4.2 M547.2,50l20.2,0.2l-6.1,3.4 M547.6,50l8,5.4
	 M550.7,50l5.2-5.7 M541,67.2c-2.6-10.6,13.2-15.2,11.4,0 M561.3,55.9l3.7-0.1l-3.6,2.9 M561.3,59.8l5.3,4.2 M555.1,83.6l-6.7-3.7
	l6.8-0.2 M561.7,81.2h5.8l-5.8,4.3 M554.9,93.5l-3.4-3.4l-2.7-0.1l0.1-3.6l4.2-0.2l0.2,2.6l1.6,1.1 M554.9,94.3l7-0.1 M554.5,110.4
	l-4.1,0.1l-0.1-4.3l-4.7,5.5l6.9-0.2 M645.7,157.2l14.2-5.8l-15.9-0.1 M732.8,193.5l0-2.8l4.5,0.1l-0.2,6.7 M725.2,165.1l0.1,18.5
	 M709.3,91.7v63.9 M774.5,260.6l2.7-10.2h10.5c2,5.1,3.4,16,3.2,21.6 M743.6,225.1l0.1-6.3l5,0.1l-0.1,4l-2.3,0.3l0.1,4.6
	 M755.3,238.2l0.2-4.2h3.4l2.3,3.3l-0.1,3l-2.9,1.2 M816.9,222.4l20.8,3.9l0.3,32 M816.9,222.4v35.9H838 M816.9,222.4l-12.4,8.8
	c0.1,5.3-1,23.1,3.2,27.4l9.3-0.2 M838,258.3h13.7c-9.4,0.9-38.6,2.7-45.9,8.8l0.2,4.2 M837.3,226.2l4.1,0.6l17.6,23l-2.3,4.4
	 M857.8,252l-53.6,0.5 M855.5,238.1h8.6v-1.2h-15l7,9.2h8v-2.5h-8.6 M855.5,238.1v5.5 M855.5,238.1H869v5.5h-13.5 M864.1,245.5
	c4,0.5,11.1-1.1,14.7-3.5 M1011.1,243.3l8.1,7.9 M1003.2,251.3l5.7-6l7.4,5.9 M882,254.6l-22.4,3.1 M851.7,259l-8.7,10.3
	 M818.5,258.3l-0.1,3.4 M665.1,231.4l78.5,0.1 M650.4,172.6l0.2,19.6 M646.8,160.6l6.8,0.1l-0.8,5l-3.6-2.6l-1.6,0.1 M648.3,165.7
	l2.9,0.4l3.1,8.5l-3,0.9 M14.8,335.1C6.9,316.6,1.2,298,4.3,279.7c356.8-2,703.8,6,1062.2-24.5c1.2,1.8,2.4,3.6,3.5,5.4
	c-6.8,4.3-15.9,10.5-23.7,16.2l-0.2-7.4l-13.1,5.4l9.6,4.7c-9.4,7.1-18.4,14.7-26.9,22.7L693,325l1.1,4.3
	c78.6-6.5,237-17.3,315.5-21.2c-41.7,41.6-41.5,63.7-93,67.6c-250.1-0.2-472.5,8.8-719.9-19.4l40.8-3c-8.2-5.4-24.4-0.7-47.3,0.3
	c-18.5,2-43.8-4.1-68.7-6.8l2.4-2l-17.3-2.1l-0.9,1.8c-11.9-2.3-26.3-3.4-40.1-2.8c-1.1,1.1-2.3,2.3-3.4,3.4
	c-1.3,8.8-2.6,17.6-3.9,26.4c-4.1,0-8.2-0.1-12.3-0.1c-4.6-9.2-6-22.3-14.9-30.4c-9.4,0.1-18.8,0.3-28.2,0.4c0-0.8,0-1.5,0-2.3
	C6.8,337.7,10.8,336.4,14.8,335.1z M294,248.4h48.6v10H294V248.4z M247,240.3h8v20.5h-8V240.3z M248.5,249.8h4.6v10.7h-4.6V249.8z
	 M380.8,240.3h2.2v20.5h-2.2V240.3z M383,246.4h3.3v4.9H383V246.4z M305,240.3h5v3.7h-5V240.3z M358.2,240.4h5v3.7h-5V240.4z
	 M369.6,240.3h5v3.7h-5V240.3z M256.2,246.8h7.3v4.2h-7.3V246.8z M227.4,244.1h6v3.4h-6V244.1z M200.5,252.9h11.9v11.7h-11.9V252.9z
	 M214.4,252.9h11.9v11.7h-11.9V252.9z M228.2,253.6h6.5v9h-6.5V253.6z M236.8,254.4h3.4v5h-3.4V254.4z M1054,208h4.8v2.5h-4.8V208z
	 M1054.8,192.6h1.9v2.6h-1.9V192.6z M646.2,233.2h9v7.6h-9V233.2z M647.8,210h6.6v11.9h-6.6V210z M635.2,217.2h6.7v4.7h-6.7V217.2z
	 M587.5,197.5h13.8v8h-13.8V197.5z M441.9,362.4c-22,1.5-44.6,0.3-67.3-0.9c43.7-1,85.9-4.3,126.3-10.4
	C483.7,355.1,467.6,359.4,441.9,362.4z M321.9,359.2c-16.3,0.6-32.9-1.4-49.6-3.4c32.3,0.7,63.6-1.1,93.7-5.7
	C353.1,353.5,341,357.1,321.9,359.2z M694,329.3l-1.1-4.3l322.8-22.9l3.2,5.4C937.9,311.7,774.9,322.6,694,329.3z M989.9,248.3
	c7.5,0.1,8.9,11,0,11.8C982.5,260.1,980.9,249.1,989.9,248.3z M989.9,251.3c7,0.9-0.1,10.4-3.2,2.9
	C986.8,253.2,987.5,251.8,989.9,251.3z M1055,246.9h4.1v4.3h-4.1V246.9z M1059.4,248.1h2.2v3.1h-2.2V248.1z M397,235.3h16.6v5H397
	V235.3z M400.9,207.1h8.7v29.5h-8.7V207.1z M428.5,212.7c14.4-4,6.7,15.7,8.5,21.9c-3,4.2-12.9,3-10.6-3.7
	C427.4,221.1,424.1,214.6,428.5,212.7z M419.7,211.4h5.8v3.2h-5.8V211.4z M431.5,244h6.6v4.4h-6.6V244z M463.2,242.2h5.9v3.4h-5.9
	V242.2z M488.3,241.9h7v3.7h-7V241.9z M496.6,241.8h7v3.7h-7V241.8z M516.4,241.9h7v3.7h-7V241.9z M508,204.5h6.4v3.8H508V204.5z
	 M572.6,196h37.6v2.4h-37.6V196z M588.6,190.8h9.1v5.2h-9.1V190.8z M583.3,168.6h18.1v9h-18.1V168.6z M592.6,145.1h14.8v5.1h-14.8
	V145.1z M1046.1,269.3l-13.1,5.4l12,5.9l0.9,4.8l2.5,0.2l2.1-8.6l-2.1-0.1l-0.3-1.6l-1.8,1.3L1046.1,269.3z M899.6,254.5
	c5.1-0.1,7.2,8.1,0,9C894.5,263.5,892.5,255.4,899.6,254.5z M899.6,256.8c4.4-0.1,1.1,8.2-2.4,2.2
	C897.4,258.3,897.5,257.6,899.6,256.8z M567.5,99.3h15.2v2.3h-15.2V99.3z M556.7,19.3h3.7v14h-3.7V19.3z M557.8,0.2h1.7v19.1h-1.7
	V0.2z M551.2,9.2h3.6v24h-3.6V9.2z M553.7,4.7h1v4.9h-1V4.7z M570.2,69.5l-15,5.5l-13.4-5.2L570.2,69.5z M541.3,67.5h10.8v1.7h-10.8
	V67.5z M561.4,64.9h10v4.2h-10V64.9z M568.6,69.6h2v2.8h-2V69.6z M566.7,56.2h1.8v8.7h-1.8V56.2z M569.7,60.4h1.4v4.5h-1.4V60.4z
	 M568.9,37.5h2.9v5h-2.9V37.5z M548.2,97.9h6.5v6.7h-6.5V97.9z M640.9,142.6h7.3v8.4h-7.3V142.6z M648.1,141h8.7v10.4h-8.7V141z
	 M650.2,135.1h4.8v5.9h-4.8V135.1z M635.6,133.5h32.8v1.8h-32.8V133.5z M716,180.7l9.6,2.9v7.9H716V180.7z M696,186.2h7.5v5.6H696
	V186.2z M706.4,186.5h5.1v5.2h-5.1V186.5z M708.5,155.7h1.7v30.9h-1.7V155.7z M851.7,254.2h7.8v9.6h-7.8V254.2z M821.8,235h11.6
	v17.3h-11.6V235z M869,239.3h33.2v2.7H869V239.3z M817,264h10.8v6.1H817V264z M837.6,262.4h9.8v6.7h-9.8V262.4z M663.4,202.4l16.4,0
	v5.4l-5.1,4.7h-11.4L663.4,202.4z M683.4,202.3l12.6,0v5.5l-4.4,4.6h-8.2V202.3z M699.6,202.3l13,0v5.4l-5.4,4.8h-7.6V202.3z
	 M715.2,202.3l6.1,0v5.1l-3.3,5h-2.8L715.2,202.3L715.2,202.3z M723.8,202.3l5.3,0v5.2l-3,5h-2.3V202.3z M731.7,202.3l6.9,0
	l-3.3,10.2h-3.6V202.3z M686.8,233.5h5v4.4h-5V233.5z"/>
<path d="M651.9,177.4l1.5,0l5.6,14.7"/>
<path d="M611.6,187.5l-3.7-33.1l33.9,0.1l4.3,33H611.6z"/>
<path d="M624.7,132.6l4.5-0.1l-0.4,8.4l-4.1,4.8"/>
<path d="M411.1,200.2h2.9v12.3h-2.9V200.2z"/>
<path d="M406,204l0.7-3.4l4.4-0.4"/>
<path d="M428.6,198.2h7.5v9.2h-7.5V198.2z"/>
<path d="M441.6,203.5h4.8v4h-4.8V203.5z"/>
<path d="M457.2,200.5h38.1v7.4h-38.1V200.5z"/>
<path d="M311.1,220.3h24.8v20.1h-24.8V220.3z"/>
<path d="M319.1,222.5h7.8v11.7h-7.8V222.5z"/>
<path d="M322.5,219h1.5v21.3h-1.5V219z"/>
<path d="M326.9,225.4h3.5v6.8h-3.5V225.4z"/>
<path d="M311.1,220.3h5.4v20.1h-5.4V220.3z"/>
<path d="M351.3,220.5h24.8v20.1h-24.8V220.5z"/>
<path d="M351.3,220.5h5.4v20.1h-5.4V220.5z"/>
<path d="M335.9,225.8h8.4v10.6h-8.4V225.8z"/>
<path d="M347.2,225.9h2.5v10.5h-2.5V225.9z"/>
<path d="M358.5,226.6h11.1v9.8h-11.1V226.6z"/>
<path d="M362.5,218.2h4.5v22.4h-4.5V218.2z"/>
<path d="M360.9,215.2h7.8v3.1h-7.8V215.2z"/>
<path d="M364.2,213h4.5v2.3h-4.5V213z"/>
<path d="M320.5,218.9h5.6"/>
<path d="M361.9,212.6v2.7"/>
<path d="M389.5,209.3h1.7v30.9h-1.7V209.3z"/>
<path d="M390.3,145.6v63.9"/>
<path d="M590.6,172.6h5.1v8.4h-5.1V172.6z"/>
<path d="M565.1,150.2l-5.9,25.2l6.9-1.8l0.1,7l-8.3,3.4l1.4-8.6"/>
<path d="M557.8,184l-1.4,8.8"/>
<path d="M567.5,192.4l0.1-7.8l-4.3-2.9l-0.2,10.6"/>
<path d="M557.5,186.2l5.8,2l4.4-2.5"/>
<path d="M556.6,191.5l-5.9,0.1v4.7l4.7-0.2"/>
<path d="M571.1,156.9l-3.5-0.1l-2.5,10.4l4.1,0.1L571.1,156.9z"/>
<path d="M669.4,180.7h12.1V192h-12.1V180.7z"/>
<path d="M681.6,180.7h6.5v5.9h-6.5V180.7z"/>
<path d="M684.3,186.6h6.9v2h-6.9V186.6z"/>
<path d="M672.6,180.7h4.3V192h-4.3V180.7z"/>
<path d="M676.9,182.6h4.7v5.3h-4.7V182.6z"/>
<path d="M684.8,188.6h2.1v3.4h-2.1V188.6z"/>
<path d="M674.3,180.7c-3.1-3.8-6.2-7.6-9.3-11.5c6.5-3.4,12.3-16.4,21.7-15c11.1,12.8,17.3,12.4,1.3,26.4"/>
<path d="M672.7,162.4l16.3,17.3"/>
<path d="M669.2,165.5l13.6,15.2"/>
<path d="M524.5,216.1h5v5.9h-5V216.1z"/>
<path d="M530.3,207h5.6v2.1h-5.6V207z"/>
<path d="M604.9,209.9h5v7.1h-5V209.9z"/>
<path d="M606.4,217h2.5v5h-2.5V217z"/>
<path d="M556.7,218.9h5.8v3.1h-5.8V218.9z"/>
<path d="M588.6,190.8c-1.1,0-2.2,0-3.3,0c-1.2-22.6,25-3.4,11.9,0"/>
<path d="M662,202.7l-5.2,0v9.5l4,0.1"/>
<path d="M300.4,337.7l45.1,0.4c-10.3,1.7-30.7,2-40.9-0.4"/>
<path d="M321.9,327.2l-0.1,10.7"/>
<path d="M342.9,327.1L337,338"/>
<path d="M306.9,324.8v2.3"/>
<path d="M351.1,324.8v2.3"/>
<path d="M316.6,327.5c5.1-0.1,7.2,8.9,0,9.8C311.5,337.3,309.5,328.4,316.6,327.5z"/>
<path d="M389.2,337.8l45.1,0.4c-10.3,1.7-30.7,2-40.9-0.4"/>
<path d="M410.4,326.8l0.1,11.1"/>
<path d="M431.7,327.2l-5.9,10.9"/>
<path d="M395.7,324.9v2.3"/>
<path d="M439.9,324.9v2.3"/>
<path d="M405.4,327.6c5.1-0.1,7.2,8.9,0,9.8C400.3,337.4,398.3,328.5,405.4,327.6z"/>
<path d="M861.9,349.1c5.5-0.1,7.6,9.4,0,10.4C856.4,359.6,854.3,350.1,861.9,349.1z"/>
<path d="M861.9,351.8c4.6-0.1,1,9.3-2.5,2.5C859.5,353.5,859.6,352.7,861.9,351.8z"/>
<path d="M261,230.5l21.5,0.1l3.1,9.7h-27.9L261,230.5z"/>
<path d="M262.7,230.5l-2.4,9.8"/>
<path d="M266.8,230.6l-1.2,9.8"/>
<path d="M271,230.6l0.6,9.7"/>
<path d="M276.5,230.6l1.1,9.7"/>
<path d="M280.3,230.6l3.1,9.7"/>
<path d="M262.7,230.5c-4.3-10.2,22-14,18.9,0.1"/>
<path d="M245.9,226.4h16.7v2.9h-16.7V226.4z"/>
<path d="M180.4,245.4c8,0,9.7,13,0,14C172.4,259.4,170.7,246.4,180.4,245.4z"/>
<path d="M180.4,247.8c4.8-0.1,6.8,8.4,0,9.2C175.6,257.1,173.6,248.7,180.4,247.8z"/>
<path d="M174.7,248.4l1.9,1.4"/>
<path d="M176.5,246.6l1.3,2"/>
<path d="M174.9,256.7l1.9-1.4"/>
<path d="M176.7,258.5l1.5-2"/>
<path d="M183.9,255.7l1.3,1.8"/>
<path d="M184.9,254.2l1.9,1"/>
<path d="M183.9,249.3l1.8-1.6"/>
<path d="M182.4,248.2l1-2.1"/>
<path d="M179.7,260.8c8,0,9.7,13,0,14C171.7,274.7,169.9,261.7,179.7,260.8z"/>
<path d="M179.7,263.2c4.8-0.1,6.8,8.4,0,9.2C174.8,272.5,172.9,264.1,179.7,263.2z"/>
<path d="M173.9,263.8l1.9,1.4"/>
<path d="M175.8,262l1.3,2"/>
<path d="M174.1,272.1l1.9-1.4"/>
<path d="M175.9,273.9l1.5-2"/>
<path d="M183.2,271l1.3,1.8"/>
<path d="M184.1,269.6l1.9,1"/>
<path d="M183.1,264.7l1.8-1.6"/>
<path d="M181.7,263.6l1-2.1"/>
<path d="M157.8,256h6.9v18.5h-6.9V256z"/>
<path d="M165.9,244.2l-9.7,6l-2.2,13.4h3.8"/>
<path d="M154,263.6h-3.8l0.6-13.3l2.9-0.1l1,9.1"/>
<path d="M158.8,239.4h7.2v4.8l-7.2,4.4V239.4z"/>
<path d="M158.8,247.1l-3.1-6.4h-4.1v5.1l2.1,0.2l2.5,4.1"/>
<path d="M171.6,236.1h12.8v4.2h-12.8V236.1z"/>
<path d="M191.5,235.4h11.2v4.9h-11.2V235.4z"/>
<path d="M113.1,262.1h21.1v12.7h-21.1V262.1z"/>
<path d="M117.2,274.8h14.9v4.2h-14.9V274.8z"/>
<path d="M144.2,274.4h14.6v4.6h-14.6V274.4z"/>
<path d="M145.5,260.6h5.1v13.7h-5.1V260.6z"/>
<path d="M154,263.6h3.8v10.9H154V263.6z"/>
<path d="M94,273.2h13.7v6.2H94V273.2z"/>
<path d="M117.7,262.1h4.3v12.7h-4.3V262.1z"/>
<path d="M125.4,262.1h4.4v12.7h-4.4V262.1z"/>
<path d="M113.1,274.8l-13.4-9.9v-4.3h16v1.5"/>
<path d="M98.9,273.2c0.5-5.6,1.5-24.7,4.8-29.1l1.9,0.1l-0.4,16.4"/>
<path d="M105.3,269v4.2"/>
<path d="M100.8,252.1c-5.6-0.3-17.4,5.5-21.9,7.6v0.9"/>
<path d="M74.9,260.6v-3.9l22-13.7h7.2l0.5,1.1"/>
<path d="M105.2,257.8l3.8,0.2l-0.1-4.2l-3.5-4.8"/>
<path d="M134.2,262.7h9.5v11.7h-9.5V262.7z"/>
<path d="M137.1,255.5h8.8v7.2h-8.8V255.5z"/>
<path d="M229,272.6h8.8v6.9H229V272.6z"/>
<path d="M196.5,252.6l-0.2,20l7.8,1.9v4.6"/>
<path d="M221.2,246.1h3.6v3.8h-3.6V246.1z"/>
<path d="M551.8,159.2l-12.1,0"/>
<path d="M542.5,159.2l7.6,6.7"/>
<path d="M541.6,159.2l0.6-8.3l3.2-1.4l2.8,1.9l0,7.7"/>
<path d="M545.1,161.5l0,23.5"/>
<path d="M545.2,172l3.4,0"/>
<path d="M545.1,163h-2.7"/>
<path d="M545,71l0.4,78.6"/>
<path d="M716,188.2l9.6,2.1"/>
<path d="M720.8,182.2l-0.4,7"/>
<path d="M6.9,197.7h2.5v20.7H6.9V197.7z"/>
<path d="M7.2,192.2v5.5"/>
<path d="M8.2,218.4l-0.4,54.2"/>
<path d="M4.4,271.7h6.1v7.4H4.4V271.7z"/>
<path d="M7.8,256.3l7,23.4"/>
<path d="M0.7,257.2l7.2,0.1"/>
<path d="M0.1,234.5l7.9,0.1"/>
<path d="M2.6,230.6l1.4,0l0.1,4"/>
<path d="M2.8,253.2l1.3-0.1l0.1,4"/>
<path d="M8.1,227.8l-7.7-0.1l4.7-5.1l0.6,3.7l2.5,0"/>
<path d="M7.7,247.6L0,247.4l4.7-5.1l0.5,3.7l2.5,0"/>
<path d="M65.7,269.5h14.2v9.6H65.7V269.5z"/>
<path d="M67.5,260.6h11v9.2h-11V260.6z"/>
<path d="M87,269.8h3.5v9.6H87V269.8z"/>
<path d="M75.7,269.5h4v10h-4V269.5z"/>
<path d="M44.1,263.4h2.7v15.6h-2.7V263.4z"/>
<path d="M46.9,269.8h5.6v9.7h-5.6V269.8z"/>
<path d="M54.6,274.4h5.2v4.6h-5.2V274.4z"/>
<path d="M36.9,269.5h4.4v9.6h-4.4V269.5z"/>
<path d="M21.5,275.9h7.7v3.2h-7.7V275.9z"/>
<path d="M23.6,264.8h3.9v11.1h-3.9V264.8z"/>
<path d="M44.3,254.1H46v9.4h-1.7V254.1z"/>
<path d="M25.8,254.4v10.4"/>
<path d="M38.4,261.8v7.7"/>
<path d="M89.6,345.4c12.5,5.4,0.3,58.1-5.3,20.3l4.5,0.1l-0.1-6.4l-4.5,0.1C84.7,351.6,86.9,345.4,89.6,345.4z"/>
<path d="M75.4,365.5l-0.6-5.6l13.9-0.4l0.1,6.4L75.4,365.5z"/>
<path d="M88.8,362l5.4,10"/>
<path d="M98.5,358l8-15.3l17.3,2.1l-16.5,13.5L98.5,358z"/>
<path d="M166.9,344.7l2.2,8.7"/>
<path d="M174.5,353.7l0.3-8.4l-7.9-0.6"/>
<path d="M164.6,353.5l15.4-0.2l-0.1,5.8l-14.5,0.6L164.6,353.5z"/>
<path d="M96.5,364.2l0.1-6.2l13.7,0.2l-0.1,5.9H96.5z"/>
<path d="M110.3,359.1l54.8-4.4"/>
<path d="M110.3,362.9l55.2-3.8"/>
<path d="M179.9,357.5l0-3.2c5.1,0.1,55.3-6.5,57.5-1.1L179.9,357.5z"/>
<path d="M237.5,353.2l25.4-0.5c-4.7-0.4-30.4-5.4-33.9-2.2"/>
<path d="M33.9,344.6c13.1,3.9,6.9,57.7-3,20.8l4.5-0.4l-0.8-6.3l-4.4,0.7C29.7,351.3,31.2,344.9,33.9,344.6z"/>
<path d="M22.1,366.2l-1.2-5.5l13.8-2l0.8,6.3L22.1,366.2z"/>
<path d="M34.9,361.2l6.5,9.3"/>
<path d="M59.9,359.4l0.6-4l25.1-4.7c-0.4,1.2-0.7,2.6-0.9,4.1L59.9,359.4z"/>
<path d="M93.2,349.4l10.9-2l-2.3,4.5l-7.5,1.4C93.9,351.8,93.6,350.5,93.2,349.4z"/>
<path d="M142.9,329.8h8.3v5.9h-8.3V329.8z"/>
<path d="M30.2,353.8l3.2,5.1"/>
</svg>
